# xmcd
#
# Track frame offsets:
#	150
#	19020
#	36020
#	51626
#	67490
#	82572
#	99220
#	119535
#	135748
#	150768
#	168697
#	185308
#	200698
#	218128
#	239421
#	256284
#	267828
#	282497
#	301390
#	315859
#
# Disc length: 4409 seconds
#
# Revision: 0
# Processed by: cddbd v1.5.2PL0 Copyright (c) Steve Scherf et al.
# Submitted via: audiograbber 1.83.01
#
DISCID=18113714
DTITLE=Various Artist - Romanticos De Corazon
DYEAR=1900
DGENRE=
TTITLE0=Una Lagrima - Los Temerarios
TTITLE1=Sin Razon - Los Acosta
TTITLE2=Si Dios Me Lleva Con El - Mendivil
TTITLE3=Sin Ti - Brindis
TTITLE4=Signo Libra - Libra
TTITLE5=Tiernas Mentiras - Samuray
TTITLE6=Tu me Quieres Lastimar - Ladron
TTITLE7=Enamorado De Un Fantasma - Liberacion
TTITLE8=Rosa Rojas - Industria
TTITLE9=Par De Anillos - Viento Y Sol
TTITLE10=Una Rosa En Tu Balcon - Acosta
TTITLE11=Mentiras - Marito Rivera
TTITLE12=En La Misma Casa - Liberacion
TTITLE13=Tu Forma De Ser - Alberto y roberto
TTITLE14=Ese Loco Soy Yo - Liberacion
TTITLE15=Piensa En Mi - Mojado
TTITLE16=Vas A Sufrir - Bryndis
TTITLE17=Corazones Rotos - Rehenes
TTITLE18=Los Cielos Lloraron - Viento y Sol
TTITLE19=El Seis - Tentacion
EXTD=
EXTT0=
EXTT1=
EXTT2=
EXTT3=
EXTT4=
EXTT5=
EXTT6=
EXTT7=
EXTT8=
EXTT9=
EXTT10=
EXTT11=
EXTT12=
EXTT13=
EXTT14=
EXTT15=
EXTT16=
EXTT17=
EXTT18=
EXTT19=
PLAYORDER=
